<?xml version="1.0" encoding="utf-8"?>
<!-- Generator: Adobe Illustrator 24.0.0, SVG Export Plug-In . SVG Version: 6.00 Build 0)  -->
<svg version="1.1" xmlns="http://www.w3.org/2000/svg" xmlns:xlink="http://www.w3.org/1999/xlink" viewBox="2 0 60 60" width="110" height="110">
<style type="text/css">
	.st0{fill:#FFFFFF;}
	.st1{fill:url(#SVGID_1_);}
</style>
<g>
	<g>
		<path class="st0" d="M14.6,40L32,50l17.4-10V20L32,10L14.6,20V40L14.6,40z M32,51.9L13,41V19l19-11l19,11V41L32,51.9L32,51.9z"/>
			<linearGradient id="SVGID_1_" gradientUnits="userSpaceOnUse" x1="-499.7857" y1="1027.4164" x2="-499.7857" y2="1027.3351" gradientTransform="matrix(236.842 0 0 -273.481 118402.2656 281006.9375)">
		</linearGradient>
		<path class="st1" d="M14.4,19.9L32,9.7l17.6,10.1v20.3L32,50.3L14.4,40.1V19.9"/>
		<path class="st0" d="M40.1,22.6c0,0.8-0.2,1.6-0.5,2.4c-0.3,0.8-0.7,1.5-1.3,2.2c-0.5,0.7-1.1,1.3-1.8,1.8
			c-0.7,0.5-1.4,0.9-2.2,1.1L34,29.4c0.4-0.2,0.8-0.5,1.2-0.8c0.4-0.3,0.7-0.7,0.9-1.2c0.3-0.4,0.5-0.9,0.6-1.4s0.2-1,0.2-1.5
			c0-0.6-0.1-1.1-0.3-1.6s-0.4-1-0.7-1.3c-0.3-0.4-0.7-0.7-1.2-0.9c-0.5-0.2-1-0.3-1.6-0.3c-0.8,0-1.4,0.1-2.1,0.4
			c-0.6,0.3-1.2,0.7-1.7,1.2c-0.5,0.5-0.9,1.1-1.3,1.7s-0.7,1.3-0.9,2c-0.2,0.7-0.4,1.4-0.6,2.1c-0.1,0.7-0.2,1.4-0.2,2
			c0,0.7,0.1,1.3,0.2,2c0.1,0.7,0.3,1.4,0.6,2c0.3,0.7,0.6,1.3,1,1.9s0.8,1.1,1.3,1.6c0.5,0.5,1.1,0.8,1.7,1.1s1.3,0.4,2,0.4
			c0.5,0,1-0.1,1.5-0.2c0.5-0.1,0.9-0.3,1.4-0.6c0.4-0.2,0.9-0.5,1.3-0.8s0.8-0.7,1.1-1l0.5,0.5c-0.5,0.6-1,1.2-1.6,1.8
			c-0.6,0.6-1.3,1.1-2.1,1.5c-0.7,0.4-1.5,0.8-2.3,1c-0.8,0.3-1.6,0.4-2.4,0.4c-0.8,0-1.5-0.1-2.2-0.4s-1.3-0.6-1.9-1.1
			c-0.6-0.5-1.1-1-1.5-1.6c-0.4-0.6-0.8-1.3-1.1-2c-0.3-0.7-0.5-1.4-0.7-2.1c-0.2-0.7-0.2-1.5-0.2-2.2c0-1,0.2-2.1,0.5-3.1
			c0.3-1.1,0.8-2.1,1.4-3.1c0.6-1,1.3-2,2.1-2.9c0.8-0.9,1.7-1.7,2.6-2.4s1.9-1.2,2.9-1.6c1-0.4,2-0.6,3.1-0.6
			c0.6,0,1.2,0.1,1.8,0.3c0.5,0.2,1,0.4,1.4,0.8s0.7,0.8,0.9,1.3C40,21.3,40.1,21.9,40.1,22.6L40.1,22.6z"/>
	</g>

</g>
</svg>
