<svg
        xmlns="http://www.w3.org/2000/svg"
        viewBox="0 0 211 198"
>
    <g>
        <path
                fill="#c5c5c5"
                d="M 5.5,-0.5 C 6.83333,-0.5 8.16667,-0.5 9.5,-0.5C 14.2626,2.41241 18.9293,5.57908 23.5,9C 19.687,11.1241 17.187,14.2908 16,18.5C 15.3333,35.8333 15.3333,53.1667 16,70.5C 16.6077,72.1545 17.1077,73.8211 17.5,75.5C 17.5,77.5 18.5,78.5 20.5,78.5C 21.8717,79.5116 23.205,80.5116 24.5,81.5C 25.0968,82.1386 25.9302,82.472 27,82.5C 28.3756,82.3158 29.2089,81.6491 29.5,80.5C 30.3072,62.5435 30.8072,44.5435 31,26.5C 31.6082,24.9336 32.4415,23.6002 33.5,22.5C 34.9063,22.0269 35.573,21.0269 35.5,19.5C 36.7985,17.9014 38.4652,17.4014 40.5,18C 45.2983,20.6347 49.9649,23.4681 54.5,26.5C 52.8509,28.6499 51.0176,30.6499 49,32.5C 48.0266,34.3921 47.3599,36.3921 47,38.5C 46.3333,54.5 46.3333,70.5 47,86.5C 47.854,92.2278 50.6873,96.5611 55.5,99.5C 56.9464,100.613 58.6131,100.78 60.5,100C 61.2524,99.3292 61.5858,98.4959 61.5,97.5C 61.3334,80.1635 61.5001,62.8301 62,45.5C 63.6891,40.4748 66.8558,36.6415 71.5,34C 82.8333,27.6667 94.1667,21.3333 105.5,15C 121.47,9.31129 136.803,10.6446 151.5,19C 155.167,21.3333 158.167,24.3333 160.5,28C 173.451,30.2175 183.951,36.3842 192,46.5C 193.297,51.1169 192.13,54.9502 188.5,58C 175.274,65.7774 161.941,73.2774 148.5,80.5C 142.531,78.5186 137.198,75.5186 132.5,71.5C 142.273,65.4409 152.273,59.6076 162.5,54C 167.172,51.3596 167.505,48.3596 163.5,45C 159.594,43.566 155.594,43.2327 151.5,44C 139.764,50.067 128.264,56.567 117,63.5C 111.582,60.207 106.082,57.0403 100.5,54C 110.906,47.2684 121.572,40.9351 132.5,35C 136.814,30.5991 135.814,27.5991 129.5,26C 126.167,25.3333 122.833,25.3333 119.5,26C 107.671,32.4138 96.0038,39.0804 84.5,46C 81.8941,47.9384 80.0608,50.4384 79,53.5C 78.9226,72.8707 78.256,92.2041 77,111.5C 73.0515,121.486 66.2182,123.986 56.5,119C 49.0915,114.927 42.9249,109.427 38,102.5C 30.876,103.354 24.376,101.52 18.5,97C 8.70451,88.8928 2.37118,78.7261 -0.5,66.5C -0.5,46.8333 -0.5,27.1667 -0.5,7.5C 1.08377,4.57444 3.08377,1.90777 5.5,-0.5 Z"
        />
    </g>
    <g>
        <path
                fill="#c5c5c5"
                d="M 35.5,19.5 C 35.573,21.0269 34.9063,22.0269 33.5,22.5C 33.427,20.9731 34.0937,19.9731 35.5,19.5 Z"
        />
    </g>
    <g>
        <path
                fill="#FFFFFF"
                d="M 132.5,71.5 C 137.198,75.5186 142.531,78.5186 148.5,80.5C 145.018,83.4844 142.518,87.151 141,91.5C 140.667,109.5 140.333,127.5 140,145.5C 135.995,158.099 128.162,160.932 116.5,154C 101.359,144.212 93.6926,130.378 93.5,112.5C 98.2924,114.799 102.959,117.299 107.5,120C 109.043,125.282 111.71,129.948 115.5,134C 117.955,135.631 120.455,135.797 123,134.5C 124.279,116.552 124.946,98.5521 125,80.5C 126.102,76.2756 128.602,73.2756 132.5,71.5 Z"
        />
    </g>
    <g>
        <path
                fill="#c5c5c5"
                d="M 17.5,75.5 C 18.8333,76.1667 19.8333,77.1667 20.5,78.5C 18.5,78.5 17.5,77.5 17.5,75.5 Z"
        />
    </g>
    <g>
        <path
                fill="#FFFFFF"
                d="M 95.5,77.5 C 100.037,79.9301 104.37,82.5968 108.5,85.5C 109.117,91.5982 108.45,97.2649 106.5,102.5C 102.136,100.656 98.1362,98.323 94.5,95.5C 93.875,92.4174 93.5417,89.2508 93.5,86C 93.5191,82.7485 94.1858,79.9151 95.5,77.5 Z"
        />
    </g>
    <g>
        <path
                style="opacity: 0.375"
                fill="#bebebe"
                d="M 29.5,80.5 C 29.2089,81.6491 28.3756,82.3158 27,82.5C 25.9302,82.472 25.0968,82.1386 24.5,81.5C 26.2915,81.634 27.9582,81.3007 29.5,80.5 Z"
        />
    </g>
    <g>
        <path
                fill="#FFFFFF"
                d="M 210.5,116.5 C 210.5,122.833 210.5,129.167 210.5,135.5C 198.988,128.91 187.322,122.577 175.5,116.5C 173.139,117.54 171.805,119.373 171.5,122C 172.139,127.584 174.805,131.918 179.5,135C 188.296,139.146 196.13,144.646 203,151.5C 205.318,154.469 206.818,157.802 207.5,161.5C 208.34,165.985 209.34,170.319 210.5,174.5C 210.5,179.5 210.5,184.5 210.5,189.5C 208.883,192.784 206.55,195.451 203.5,197.5C 199.833,197.5 196.167,197.5 192.5,197.5C 180.183,190.92 168.017,183.92 156,176.5C 155.333,170.167 155.333,163.833 156,157.5C 166.752,163.793 177.585,169.96 188.5,176C 192.534,176.976 194.534,175.309 194.5,171C 193.973,165.945 191.639,161.945 187.5,159C 164.76,148.35 154.26,130.517 156,105.5C 158.332,97.0783 163.832,93.9116 172.5,96C 185.609,102.054 198.275,108.887 210.5,116.5 Z"
        />
    </g>
    <g>
        <path
                style="opacity: 0.22"
                fill="#c9c9c9"
                d="M 61.5,97.5 C 61.5858,98.4959 61.2524,99.3292 60.5,100C 58.6131,100.78 56.9464,100.613 55.5,99.5C 57.8583,99.7475 59.8583,99.0808 61.5,97.5 Z"
        />
    </g>
    <g>
        <path
                style="opacity: 0.533"
                fill="#e2e2e2"
                d="M 207.5,161.5 C 208.313,163.261 209.313,164.928 210.5,166.5C 210.5,169.167 210.5,171.833 210.5,174.5C 209.34,170.319 208.34,165.985 207.5,161.5 Z"
        />
    </g>
</svg>
